0
SECTION
2
HEADER
9
$INSUNITS
70
4
9
$ACADVER
1
AC1014
9
$HANDSEED
5
FFFF
0
ENDSEC
0
SECTION
2
TABLES
0
TABLE
2
VPORT
5
8
100
AcDbSymbolTable
0
ENDTAB
0
TABLE
2
LTYPE
5
5
100
AcDbSymbolTable
0
LTYPE
5
14
100
AcDbSymbolTableRecord
100
AcDbLinetypeTableRecord
2
BYBLOCK
70
0
0
LTYPE
5
15
100
AcDbSymbolTableRecord
100
AcDbLinetypeTableRecord
2
BYLAYER
70
0
0
LTYPE
5
16
100
AcDbSymbolTableRecord
100
AcDbLinetypeTableRecord
2
DASHED
70
0
3
Dashed __ __ __ __ __ __ __ __ __ __ __ __ __ _
72
65
73
2
40
0.75
49
0.5
74
0
49
-0.25
74
0
0
ENDTAB
0
TABLE
2
LAYER
5
2
100
AcDbSymbolTable
70
2
0
LAYER
5
50
100
AcDbSymbolTableRecord
100
AcDbLayerTableRecord
2
0
70
0
62
7
6
CONTINUOUS
0
ENDTAB
0
TABLE
2
STYLE
5
3
100
AcDbSymbolTable
70
1
0
STYLE
5
11
100
AcDbSymbolTableRecord
100
AcDbTextStyleTableRecord
2
STANDARD
70
0
0
ENDTAB
0
TABLE
2
VIEW
5
6
100
AcDbSymbolTable
70
0
0
ENDTAB
0
TABLE
2
UCS
5
7
100
AcDbSymbolTable
70
0
0
ENDTAB
0
TABLE
2
APPID
5
9
100
AcDbSymbolTable
70
2
0
APPID
5
12
100
AcDbSymbolTableRecord
100
AcDbRegAppTableRecord
2
ACAD
70
0
0
ENDTAB
0
TABLE
2
DIMSTYLE
5
A
100
AcDbSymbolTable
70
1
0
ENDTAB
0
TABLE
2
BLOCK_RECORD
5
1
100
AcDbSymbolTable
70
1
0
BLOCK_RECORD
5
1F
100
AcDbSymbolTableRecord
100
AcDbBlockTableRecord
2
*MODEL_SPACE
0
BLOCK_RECORD
5
1B
100
AcDbSymbolTableRecord
100
AcDbBlockTableRecord
2
*PAPER_SPACE
0
ENDTAB
0
ENDSEC
0
SECTION
2
BLOCKS
0
BLOCK
5
20
100
AcDbEntity
100
AcDbBlockBegin
2
*MODEL_SPACE
0
ENDBLK
5
21
100
AcDbEntity
100
AcDbBlockEnd
0
BLOCK
5
1C
100
AcDbEntity
100
AcDbBlockBegin
2
*PAPER_SPACE
0
ENDBLK
5
1D
100
AcDbEntity
100
AcDbBlockEnd
0
ENDSEC
0
SECTION
2
ENTITIES
0
LWPOLYLINE
5
100
100
AcDbEntity
8
0
100
AcDbPolyline
90
8
70
1
43
0.0
10
-20.93
20
-15.373397172404479
42
0.24153136105886999
10
-21.763333333333339
20
-13.748931448269657
42
-3.1066849064012767
10
-17.096666666666668
20
-13.748931448269657
42
0.24153136105887194
10
-17.93
20
-15.373397172404484
10
-17.930000000000007
20
-49
42
-0.41421356237309509
10
-18.930000000000003
20
-50
10
-19.93
20
-50
42
-0.41421356237309509
10
-20.93
20
-49
0
LWPOLYLINE
5
101
100
AcDbEntity
8
0
100
AcDbPolyline
90
8
70
1
43
0.0
10
-10.749999999999993
20
-49.000000000000014
10
-10.750000000000002
20
-15.000000000000004
42
-0.41421356237309598
10
-9.7499999999999964
20
-14.000000000000004
10
-8.75
20
-14.000000000000007
42
-0.4142135623730957
10
-7.75
20
-15.000000000000009
10
-7.7500000000000018
20
-49.000000000000014
42
-0.4142135623730957
10
-8.75
20
-50.000000000000007
10
-9.7499999999999964
20
-50.000000000000007
42
-0.41421356237309598
0
LWPOLYLINE
5
102
100
AcDbEntity
8
0
100
AcDbPolyline
90
8
70
1
43
0.0
10
7.0000000000000009
20
3.0000000000000067
42
0.41421356237309442
10
3.0000000000000071
20
7.0000000000000071
10
-195.00000000000003
20
6.9999999999999973
42
0.41421356237309559
10
-199.00000000000003
20
2.9999999999999889
10
-199.00000000000003
20
-77.999999999999986
42
0.41421356237309243
10
-195.00000000000003
20
-82.000000000000014
10
3.0000000000000071
20
-82
42
0.41421356237309132
10
7.0000000000000036
20
-78
0
CIRCLE
5
103
100
AcDbEntity
8
0
100
AcDbCircle
10
-105
20
-29.000000000000004
30
0
40
5.8750000000000036
210
0
220
-0
230
1
0
CIRCLE
5
104
100
AcDbEntity
8
0
100
AcDbCircle
10
-105
20
-12.000000000000002
30
0
40
5.8750000000000036
210
0
220
-0
230
1
0
CIRCLE
5
105
100
AcDbEntity
8
0
100
AcDbCircle
10
-54
20
-29.000000000000004
30
0
40
5.8750000000000036
210
0
220
-0
230
1
0
CIRCLE
5
106
100
AcDbEntity
8
0
100
AcDbCircle
10
-71
20
-46.000000000000007
30
0
40
5.8750000000000036
210
0
220
-0
230
1
0
CIRCLE
5
107
100
AcDbEntity
8
0
100
AcDbCircle
10
-88
20
-46.000000000000007
30
0
40
5.8750000000000036
210
0
220
-0
230
1
0
CIRCLE
5
108
100
AcDbEntity
8
0
100
AcDbCircle
10
-71
20
-29.000000000000004
30
0
40
5.8750000000000036
210
0
220
-0
230
1
0
CIRCLE
5
109
100
AcDbEntity
8
0
100
AcDbCircle
10
-105
20
-46.000000000000007
30
0
40
5.8750000000000036
210
0
220
-0
230
1
0
CIRCLE
5
110
100
AcDbEntity
8
0
100
AcDbCircle
10
-186.50000000000003
20
-5.5
30
0
40
1.6999999999999815
210
0
220
-0
230
1
0
CIRCLE
5
111
100
AcDbEntity
8
0
100
AcDbCircle
10
-88
20
-29.000000000000004
30
0
40
5.8750000000000036
210
0
220
-0
230
1
0
CIRCLE
5
112
100
AcDbEntity
8
0
100
AcDbCircle
10
-54
20
-46.000000000000007
30
0
40
5.8750000000000036
210
0
220
-0
230
1
0
CIRCLE
5
113
100
AcDbEntity
8
0
100
AcDbCircle
10
-156
20
-12.000000000000002
30
0
40
5.8750000000000036
210
0
220
-0
230
1
0
LWPOLYLINE
5
114
100
AcDbEntity
8
0
100
AcDbPolyline
90
4
70
1
43
0.0
10
-20
20
-75
10
-10
20
-75
10
-10
20
-78
10
-20
20
-78
0
CIRCLE
5
115
100
AcDbEntity
8
0
100
AcDbCircle
10
-122
20
-12.000000000000002
30
0
40
5.8750000000000036
210
0
220
-0
230
1
0
LWPOLYLINE
5
116
100
AcDbEntity
8
0
100
AcDbPolyline
90
4
70
1
43
0.0
10
-64.000000000000014
20
0
10
-74.000000000000014
20
0
10
-74.000000000000014
20
2.9999999999999982
10
-64.000000000000014
20
2.9999999999999982
0
CIRCLE
5
117
100
AcDbEntity
8
0
100
AcDbCircle
10
-5.5
20
-69.5
30
0
40
1.7000000000000015
210
0
220
-0
230
1
0
LWPOLYLINE
5
118
100
AcDbEntity
8
0
100
AcDbPolyline
90
4
70
1
43
0.0
10
-128.00000000000003
20
-78
10
-128.00000000000003
20
-75
10
-118.00000000000003
20
-75
10
-118.00000000000003
20
-78
0
LWPOLYLINE
5
119
100
AcDbEntity
8
0
100
AcDbPolyline
90
4
70
1
43
0.0
10
-172.00000000000003
20
0
10
-182.00000000000003
20
0
10
-182.00000000000003
20
2.9999999999999982
10
-172.00000000000003
20
2.9999999999999982
0
CIRCLE
5
120
100
AcDbEntity
8
0
100
AcDbCircle
10
-156
20
-46.000000000000007
30
0
40
3.3750000000000036
210
0
220
-0
230
1
0
CIRCLE
5
121
100
AcDbEntity
8
0
100
AcDbCircle
10
-105
20
-63.000000000000007
30
0
40
3.3750000000000036
210
0
220
-0
230
1
0
CIRCLE
5
122
100
AcDbEntity
8
0
100
AcDbCircle
10
-88
20
-63.000000000000007
30
0
40
3.3750000000000036
210
0
220
-0
230
1
0
CIRCLE
5
123
100
AcDbEntity
8
0
100
AcDbCircle
10
-139
20
-63.000000000000007
30
0
40
3.3750000000000036
210
0
220
-0
230
1
0
CIRCLE
5
124
100
AcDbEntity
8
0
100
AcDbCircle
10
-122
20
-63.000000000000007
30
0
40
3.3750000000000036
210
0
220
-0
230
1
0
CIRCLE
5
125
100
AcDbEntity
8
0
100
AcDbCircle
10
-173
20
-46.000000000000007
30
0
40
3.3749999999999853
210
0
220
-0
230
1
0
CIRCLE
5
126
100
AcDbEntity
8
0
100
AcDbCircle
10
-156
20
-29.000000000000004
30
0
40
3.3750000000000036
210
0
220
-0
230
1
0
CIRCLE
5
127
100
AcDbEntity
8
0
100
AcDbCircle
10
-122
20
-29.000000000000004
30
0
40
3.3750000000000036
210
0
220
-0
230
1
0
CIRCLE
5
128
100
AcDbEntity
8
0
100
AcDbCircle
10
-156
20
-63.000000000000007
30
0
40
3.3750000000000036
210
0
220
-0
230
1
0
CIRCLE
5
129
100
AcDbEntity
8
0
100
AcDbCircle
10
-139
20
-29.000000000000004
30
0
40
3.3750000000000036
210
0
220
-0
230
1
0
CIRCLE
5
130
100
AcDbEntity
8
0
100
AcDbCircle
10
-122
20
-46.000000000000007
30
0
40
3.3750000000000036
210
0
220
-0
230
1
0
LWPOLYLINE
5
131
100
AcDbEntity
8
0
100
AcDbPolyline
90
8
70
1
43
0.0
10
-40.25
20
-4.9999999999999911
10
-39.25
20
-4.9999999999999911
42
-0.41421356237309509
10
-38.25
20
-5.999999999999992
10
-38.25
20
-49
42
-0.41421356237309509
10
-39.25
20
-50
10
-40.25
20
-50
42
-0.41421356237309509
10
-41.25
20
-49
10
-41.25
20
-5.9999999999999964
42
-0.41421356237309637
0
CIRCLE
5
132
100
AcDbEntity
8
0
100
AcDbCircle
10
-139
20
-46.000000000000007
30
0
40
3.3750000000000036
210
0
220
-0
230
1
0
CIRCLE
5
133
100
AcDbEntity
8
0
100
AcDbCircle
10
-173
20
-63.000000000000007
30
0
40
3.3749999999999853
210
0
220
-0
230
1
0
CIRCLE
5
134
100
AcDbEntity
8
0
100
AcDbCircle
10
-173
20
-29.000000000000004
30
0
40
3.3749999999999853
210
0
220
-0
230
1
0
LWPOLYLINE
5
135
100
AcDbEntity
8
0
100
AcDbPolyline
90
4
70
1
43
0.0
10
-182.00000000000003
20
-78
10
-182.00000000000003
20
-75
10
-172.00000000000003
20
-75
10
-172.00000000000003
20
-78
0
CIRCLE
5
136
100
AcDbEntity
8
0
100
AcDbCircle
10
-88
20
-12.000000000000002
30
0
40
5.8750000000000036
210
0
220
-0
230
1
0
CIRCLE
5
137
100
AcDbEntity
8
0
100
AcDbCircle
10
-186.50000000000003
20
-69.5
30
0
40
1.7000000000000171
210
0
220
-0
230
1
0
LWPOLYLINE
5
138
100
AcDbEntity
8
0
100
AcDbPolyline
90
4
70
1
43
0.0
10
-20
20
2.9999999999999982
10
-10
20
2.9999999999999982
10
-10
20
0
10
-20
20
0
0
LWPOLYLINE
5
139
100
AcDbEntity
8
0
100
AcDbPolyline
90
4
70
1
43
0.0
10
3.4999999999999964
20
-10
10
3.4999999999999964
20
-20
10
0
20
-20
10
0
20
-10
0
LWPOLYLINE
5
140
100
AcDbEntity
8
0
100
AcDbPolyline
90
4
70
1
43
0.0
10
3.4999999999999964
20
-55
10
3.4999999999999964
20
-65
10
0
20
-65
10
0
20
-55
0
CIRCLE
5
141
100
AcDbEntity
8
0
100
AcDbCircle
10
-5.5
20
-5.5
30
0
40
1.6999999999999993
210
0
220
-0
230
1
0
LWPOLYLINE
5
142
100
AcDbEntity
8
0
100
AcDbPolyline
90
4
70
1
43
0.0
10
-195.50000000000006
20
-10
10
-192.00000000000003
20
-10
10
-192.00000000000003
20
-20
10
-195.50000000000006
20
-20
0
LWPOLYLINE
5
143
100
AcDbEntity
8
0
100
AcDbPolyline
90
4
70
1
43
0.0
10
-195.50000000000006
20
-55
10
-192.00000000000003
20
-55
10
-192.00000000000003
20
-65
10
-195.50000000000006
20
-65
0
CIRCLE
5
144
100
AcDbEntity
8
0
100
AcDbCircle
10
-54
20
-12.000000000000002
30
0
40
5.8750000000000036
210
0
220
-0
230
1
0
CIRCLE
5
145
100
AcDbEntity
8
0
100
AcDbCircle
10
-173
20
-12.000000000000002
30
0
40
5.8749999999999849
210
0
220
-0
230
1
0
LWPOLYLINE
5
146
100
AcDbEntity
8
0
100
AcDbPolyline
90
4
70
1
43
0.0
10
-74.000000000000014
20
-78
10
-74.000000000000014
20
-75
10
-64.000000000000014
20
-75
10
-64.000000000000014
20
-78
0
CIRCLE
5
147
100
AcDbEntity
8
0
100
AcDbCircle
10
-71
20
-12.000000000000002
30
0
40
5.8750000000000036
210
0
220
-0
230
1
0
LWPOLYLINE
5
148
100
AcDbEntity
8
0
100
AcDbPolyline
90
4
70
1
43
0.0
10
-118.00000000000003
20
0
10
-128.00000000000003
20
0
10
-128.00000000000003
20
2.9999999999999982
10
-118.00000000000003
20
2.9999999999999982
0
CIRCLE
5
149
100
AcDbEntity
8
0
100
AcDbCircle
10
-54
20
-63.000000000000007
30
0
40
3.3750000000000036
210
0
220
-0
230
1
0
CIRCLE
5
150
100
AcDbEntity
8
0
100
AcDbCircle
10
-71
20
-63.000000000000007
30
0
40
3.3750000000000036
210
0
220
-0
230
1
0
CIRCLE
5
151
100
AcDbEntity
8
0
100
AcDbCircle
10
-139
20
-12.000000000000002
30
0
40
5.8750000000000036
210
0
220
-0
230
1
0
ENDSEC
0
SECTION
2
OBJECTS
0
DICTIONARY
5
C
100
AcDbDictionary
3
ACAD_GROUP
350
D
3
ACAD_MLINESTYLE
350
17
0
DICTIONARY
5
D
100
AcDbDictionary
0
DICTIONARY
5
1A
330
C
100
AcDbDictionary
0
DICTIONARY
5
17
100
AcDbDictionary
0
ENDSEC
0
EOF
