%TF.GenerationSoftware,KiCad,Pcbnew,9.0.0*%
%TF.CreationDate,2026-02-03T17:21:03-08:00*%
%TF.ProjectId,Mini Video Synth,4d696e69-2056-4696-9465-6f2053796e74,rev?*%
%TF.SameCoordinates,Original*%
%TF.FileFunction,Profile,NP*%
%FSLAX46Y46*%
G04 Gerber Fmt 4.6, Leading zero omitted, Abs format (unit mm)*
G04 Created by KiCad (PCBNEW 9.0.0) date 2026-02-03 17:21:03*
%MOMM*%
%LPD*%
G01*
G04 APERTURE LIST*
%TA.AperFunction,Profile*%
%ADD10C,0.050000*%
%TD*%
G04 APERTURE END LIST*
D10*
X248500000Y-52000000D02*
G75*
G02*
X254000000Y-57500000I0J-5500000D01*
G01*
X250200000Y-57500000D02*
G75*
G02*
X246800000Y-57500000I-1700000J0D01*
G01*
X246800000Y-57500000D02*
G75*
G02*
X250200000Y-57500000I1700000J0D01*
G01*
X62000000Y-121500000D02*
X62000000Y-57500000D01*
X254000000Y-57500000D02*
X254000000Y-121500000D01*
X69200000Y-121500000D02*
G75*
G02*
X65800000Y-121500000I-1700000J0D01*
G01*
X65800000Y-121500000D02*
G75*
G02*
X69200000Y-121500000I1700000J0D01*
G01*
X67500000Y-127000000D02*
G75*
G02*
X62000000Y-121500000I0J5500000D01*
G01*
X67500000Y-52000000D02*
X248500000Y-52000000D01*
X250200000Y-121500000D02*
G75*
G02*
X246800000Y-121500000I-1700000J0D01*
G01*
X246800000Y-121500000D02*
G75*
G02*
X250200000Y-121500000I1700000J0D01*
G01*
X248500000Y-127000000D02*
X67500000Y-127000000D01*
X69200000Y-57500000D02*
G75*
G02*
X65800000Y-57500000I-1700000J0D01*
G01*
X65800000Y-57500000D02*
G75*
G02*
X69200000Y-57500000I1700000J0D01*
G01*
X62000000Y-57500000D02*
G75*
G02*
X67500000Y-52000000I5500000J0D01*
G01*
X254000000Y-121500000D02*
G75*
G02*
X248500000Y-127000000I-5500000J0D01*
G01*
%TO.C,SW8*%
X167900000Y-93500000D02*
G75*
G02*
X166100000Y-93500000I-900000J0D01*
G01*
X166100000Y-93500000D02*
G75*
G02*
X167900000Y-93500000I900000J0D01*
G01*
X167900000Y-102500000D02*
G75*
G02*
X166100000Y-102500000I-900000J0D01*
G01*
X166100000Y-102500000D02*
G75*
G02*
X167900000Y-102500000I900000J0D01*
G01*
%TO.C,SW6*%
X133900000Y-93500000D02*
G75*
G02*
X132100000Y-93500000I-900000J0D01*
G01*
X132100000Y-93500000D02*
G75*
G02*
X133900000Y-93500000I900000J0D01*
G01*
X133900000Y-102500000D02*
G75*
G02*
X132100000Y-102500000I-900000J0D01*
G01*
X132100000Y-102500000D02*
G75*
G02*
X133900000Y-102500000I900000J0D01*
G01*
%TO.C,SW11*%
X150900000Y-110500000D02*
G75*
G02*
X149100000Y-110500000I-900000J0D01*
G01*
X149100000Y-110500000D02*
G75*
G02*
X150900000Y-110500000I900000J0D01*
G01*
X150900000Y-119500000D02*
G75*
G02*
X149100000Y-119500000I-900000J0D01*
G01*
X149100000Y-119500000D02*
G75*
G02*
X150900000Y-119500000I900000J0D01*
G01*
%TO.C,SW1*%
X116900000Y-76500000D02*
G75*
G02*
X115100000Y-76500000I-900000J0D01*
G01*
X115100000Y-76500000D02*
G75*
G02*
X116900000Y-76500000I900000J0D01*
G01*
X116900000Y-85500000D02*
G75*
G02*
X115100000Y-85500000I-900000J0D01*
G01*
X115100000Y-85500000D02*
G75*
G02*
X116900000Y-85500000I900000J0D01*
G01*
%TO.C,SW3*%
X150900000Y-76500000D02*
G75*
G02*
X149100000Y-76500000I-900000J0D01*
G01*
X149100000Y-76500000D02*
G75*
G02*
X150900000Y-76500000I900000J0D01*
G01*
X150900000Y-85500000D02*
G75*
G02*
X149100000Y-85500000I-900000J0D01*
G01*
X149100000Y-85500000D02*
G75*
G02*
X150900000Y-85500000I900000J0D01*
G01*
%TO.C,SW16*%
X235900000Y-110500000D02*
G75*
G02*
X234100000Y-110500000I-900000J0D01*
G01*
X234100000Y-110500000D02*
G75*
G02*
X235900000Y-110500000I900000J0D01*
G01*
X235900000Y-119500000D02*
G75*
G02*
X234100000Y-119500000I-900000J0D01*
G01*
X234100000Y-119500000D02*
G75*
G02*
X235900000Y-119500000I900000J0D01*
G01*
%TO.C,SW7*%
X150900000Y-93500000D02*
G75*
G02*
X149100000Y-93500000I-900000J0D01*
G01*
X149100000Y-93500000D02*
G75*
G02*
X150900000Y-93500000I900000J0D01*
G01*
X150900000Y-102500000D02*
G75*
G02*
X149100000Y-102500000I-900000J0D01*
G01*
X149100000Y-102500000D02*
G75*
G02*
X150900000Y-102500000I900000J0D01*
G01*
%TO.C,SW9*%
X116900000Y-110500000D02*
G75*
G02*
X115100000Y-110500000I-900000J0D01*
G01*
X115100000Y-110500000D02*
G75*
G02*
X116900000Y-110500000I900000J0D01*
G01*
X116900000Y-119500000D02*
G75*
G02*
X115100000Y-119500000I-900000J0D01*
G01*
X115100000Y-119500000D02*
G75*
G02*
X116900000Y-119500000I900000J0D01*
G01*
%TO.C,SW12*%
X167900000Y-110500000D02*
G75*
G02*
X166100000Y-110500000I-900000J0D01*
G01*
X166100000Y-110500000D02*
G75*
G02*
X167900000Y-110500000I900000J0D01*
G01*
X167900000Y-119500000D02*
G75*
G02*
X166100000Y-119500000I-900000J0D01*
G01*
X166100000Y-119500000D02*
G75*
G02*
X167900000Y-119500000I900000J0D01*
G01*
%TO.C,SW10*%
X133900000Y-110500000D02*
G75*
G02*
X132100000Y-110500000I-900000J0D01*
G01*
X132100000Y-110500000D02*
G75*
G02*
X133900000Y-110500000I900000J0D01*
G01*
X133900000Y-119500000D02*
G75*
G02*
X132100000Y-119500000I-900000J0D01*
G01*
X132100000Y-119500000D02*
G75*
G02*
X133900000Y-119500000I900000J0D01*
G01*
%TO.C,SW15*%
X218900000Y-110500000D02*
G75*
G02*
X217100000Y-110500000I-900000J0D01*
G01*
X217100000Y-110500000D02*
G75*
G02*
X218900000Y-110500000I900000J0D01*
G01*
X218900000Y-119500000D02*
G75*
G02*
X217100000Y-119500000I-900000J0D01*
G01*
X217100000Y-119500000D02*
G75*
G02*
X218900000Y-119500000I900000J0D01*
G01*
%TO.C,SW4*%
X167900000Y-76500000D02*
G75*
G02*
X166100000Y-76500000I-900000J0D01*
G01*
X166100000Y-76500000D02*
G75*
G02*
X167900000Y-76500000I900000J0D01*
G01*
X167900000Y-85500000D02*
G75*
G02*
X166100000Y-85500000I-900000J0D01*
G01*
X166100000Y-85500000D02*
G75*
G02*
X167900000Y-85500000I900000J0D01*
G01*
%TO.C,SW5*%
X116900000Y-93500000D02*
G75*
G02*
X115100000Y-93500000I-900000J0D01*
G01*
X115100000Y-93500000D02*
G75*
G02*
X116900000Y-93500000I900000J0D01*
G01*
X116900000Y-102500000D02*
G75*
G02*
X115100000Y-102500000I-900000J0D01*
G01*
X115100000Y-102500000D02*
G75*
G02*
X116900000Y-102500000I900000J0D01*
G01*
%TO.C,SW13*%
X184900000Y-110500000D02*
G75*
G02*
X183100000Y-110500000I-900000J0D01*
G01*
X183100000Y-110500000D02*
G75*
G02*
X184900000Y-110500000I900000J0D01*
G01*
X184900000Y-119500000D02*
G75*
G02*
X183100000Y-119500000I-900000J0D01*
G01*
X183100000Y-119500000D02*
G75*
G02*
X184900000Y-119500000I900000J0D01*
G01*
%TO.C,SW14*%
X201900000Y-110500000D02*
G75*
G02*
X200100000Y-110500000I-900000J0D01*
G01*
X200100000Y-110500000D02*
G75*
G02*
X201900000Y-110500000I900000J0D01*
G01*
X201900000Y-119500000D02*
G75*
G02*
X200100000Y-119500000I-900000J0D01*
G01*
X200100000Y-119500000D02*
G75*
G02*
X201900000Y-119500000I900000J0D01*
G01*
%TO.C,SW2*%
X133900000Y-76500000D02*
G75*
G02*
X132100000Y-76500000I-900000J0D01*
G01*
X132100000Y-76500000D02*
G75*
G02*
X133900000Y-76500000I900000J0D01*
G01*
X133900000Y-85500000D02*
G75*
G02*
X132100000Y-85500000I-900000J0D01*
G01*
X132100000Y-85500000D02*
G75*
G02*
X133900000Y-85500000I900000J0D01*
G01*
%TD*%
M02*
