%TF.GenerationSoftware,KiCad,Pcbnew,9.0.0*%
%TF.CreationDate,2026-02-03T17:21:40-08:00*%
%TF.ProjectId,Mini Video Synth,4d696e69-2056-4696-9465-6f2053796e74,rev?*%
%TF.SameCoordinates,Original*%
%TF.FileFunction,Drillmap*%
%TF.FilePolarity,Positive*%
%FSLAX45Y45*%
G04 Gerber Fmt 4.5, Leading zero omitted, Abs format (unit mm)*
G04 Created by KiCad (PCBNEW 9.0.0) date 2026-02-03 17:21:40*
%MOMM*%
%LPD*%
G01*
G04 APERTURE LIST*
%ADD10C,0.050000*%
%ADD11C,0.200000*%
G04 APERTURE END LIST*
D10*
X24850000Y-5200000D02*
G75*
G02*
X25400000Y-5750000I0J-550000D01*
G01*
X25020000Y-5750000D02*
G75*
G02*
X24680000Y-5750000I-170000J0D01*
G01*
X24680000Y-5750000D02*
G75*
G02*
X25020000Y-5750000I170000J0D01*
G01*
X6200000Y-12150000D02*
X6200000Y-5750000D01*
X25400000Y-5750000D02*
X25400000Y-12150000D01*
X6920000Y-12150000D02*
G75*
G02*
X6580000Y-12150000I-170000J0D01*
G01*
X6580000Y-12150000D02*
G75*
G02*
X6920000Y-12150000I170000J0D01*
G01*
X6750000Y-12700000D02*
G75*
G02*
X6200000Y-12150000I0J550000D01*
G01*
X6750000Y-5200000D02*
X24850000Y-5200000D01*
X25020000Y-12150000D02*
G75*
G02*
X24680000Y-12150000I-170000J0D01*
G01*
X24680000Y-12150000D02*
G75*
G02*
X25020000Y-12150000I170000J0D01*
G01*
X24850000Y-12700000D02*
X6750000Y-12700000D01*
X6920000Y-5750000D02*
G75*
G02*
X6580000Y-5750000I-170000J0D01*
G01*
X6580000Y-5750000D02*
G75*
G02*
X6920000Y-5750000I170000J0D01*
G01*
X6200000Y-5750000D02*
G75*
G02*
X6750000Y-5200000I550000J0D01*
G01*
X25400000Y-12150000D02*
G75*
G02*
X24850000Y-12700000I-550000J0D01*
G01*
X16790000Y-9350000D02*
G75*
G02*
X16610000Y-9350000I-90000J0D01*
G01*
X16610000Y-9350000D02*
G75*
G02*
X16790000Y-9350000I90000J0D01*
G01*
X16790000Y-10250000D02*
G75*
G02*
X16610000Y-10250000I-90000J0D01*
G01*
X16610000Y-10250000D02*
G75*
G02*
X16790000Y-10250000I90000J0D01*
G01*
X13390000Y-9350000D02*
G75*
G02*
X13210000Y-9350000I-90000J0D01*
G01*
X13210000Y-9350000D02*
G75*
G02*
X13390000Y-9350000I90000J0D01*
G01*
X13390000Y-10250000D02*
G75*
G02*
X13210000Y-10250000I-90000J0D01*
G01*
X13210000Y-10250000D02*
G75*
G02*
X13390000Y-10250000I90000J0D01*
G01*
X15090000Y-11050000D02*
G75*
G02*
X14910000Y-11050000I-90000J0D01*
G01*
X14910000Y-11050000D02*
G75*
G02*
X15090000Y-11050000I90000J0D01*
G01*
X15090000Y-11950000D02*
G75*
G02*
X14910000Y-11950000I-90000J0D01*
G01*
X14910000Y-11950000D02*
G75*
G02*
X15090000Y-11950000I90000J0D01*
G01*
X11690000Y-7650000D02*
G75*
G02*
X11510000Y-7650000I-90000J0D01*
G01*
X11510000Y-7650000D02*
G75*
G02*
X11690000Y-7650000I90000J0D01*
G01*
X11690000Y-8550000D02*
G75*
G02*
X11510000Y-8550000I-90000J0D01*
G01*
X11510000Y-8550000D02*
G75*
G02*
X11690000Y-8550000I90000J0D01*
G01*
X15090000Y-7650000D02*
G75*
G02*
X14910000Y-7650000I-90000J0D01*
G01*
X14910000Y-7650000D02*
G75*
G02*
X15090000Y-7650000I90000J0D01*
G01*
X15090000Y-8550000D02*
G75*
G02*
X14910000Y-8550000I-90000J0D01*
G01*
X14910000Y-8550000D02*
G75*
G02*
X15090000Y-8550000I90000J0D01*
G01*
X23590000Y-11050000D02*
G75*
G02*
X23410000Y-11050000I-90000J0D01*
G01*
X23410000Y-11050000D02*
G75*
G02*
X23590000Y-11050000I90000J0D01*
G01*
X23590000Y-11950000D02*
G75*
G02*
X23410000Y-11950000I-90000J0D01*
G01*
X23410000Y-11950000D02*
G75*
G02*
X23590000Y-11950000I90000J0D01*
G01*
X15090000Y-9350000D02*
G75*
G02*
X14910000Y-9350000I-90000J0D01*
G01*
X14910000Y-9350000D02*
G75*
G02*
X15090000Y-9350000I90000J0D01*
G01*
X15090000Y-10250000D02*
G75*
G02*
X14910000Y-10250000I-90000J0D01*
G01*
X14910000Y-10250000D02*
G75*
G02*
X15090000Y-10250000I90000J0D01*
G01*
X11690000Y-11050000D02*
G75*
G02*
X11510000Y-11050000I-90000J0D01*
G01*
X11510000Y-11050000D02*
G75*
G02*
X11690000Y-11050000I90000J0D01*
G01*
X11690000Y-11950000D02*
G75*
G02*
X11510000Y-11950000I-90000J0D01*
G01*
X11510000Y-11950000D02*
G75*
G02*
X11690000Y-11950000I90000J0D01*
G01*
X16790000Y-11050000D02*
G75*
G02*
X16610000Y-11050000I-90000J0D01*
G01*
X16610000Y-11050000D02*
G75*
G02*
X16790000Y-11050000I90000J0D01*
G01*
X16790000Y-11950000D02*
G75*
G02*
X16610000Y-11950000I-90000J0D01*
G01*
X16610000Y-11950000D02*
G75*
G02*
X16790000Y-11950000I90000J0D01*
G01*
X13390000Y-11050000D02*
G75*
G02*
X13210000Y-11050000I-90000J0D01*
G01*
X13210000Y-11050000D02*
G75*
G02*
X13390000Y-11050000I90000J0D01*
G01*
X13390000Y-11950000D02*
G75*
G02*
X13210000Y-11950000I-90000J0D01*
G01*
X13210000Y-11950000D02*
G75*
G02*
X13390000Y-11950000I90000J0D01*
G01*
X21890000Y-11050000D02*
G75*
G02*
X21710000Y-11050000I-90000J0D01*
G01*
X21710000Y-11050000D02*
G75*
G02*
X21890000Y-11050000I90000J0D01*
G01*
X21890000Y-11950000D02*
G75*
G02*
X21710000Y-11950000I-90000J0D01*
G01*
X21710000Y-11950000D02*
G75*
G02*
X21890000Y-11950000I90000J0D01*
G01*
X16790000Y-7650000D02*
G75*
G02*
X16610000Y-7650000I-90000J0D01*
G01*
X16610000Y-7650000D02*
G75*
G02*
X16790000Y-7650000I90000J0D01*
G01*
X16790000Y-8550000D02*
G75*
G02*
X16610000Y-8550000I-90000J0D01*
G01*
X16610000Y-8550000D02*
G75*
G02*
X16790000Y-8550000I90000J0D01*
G01*
X11690000Y-9350000D02*
G75*
G02*
X11510000Y-9350000I-90000J0D01*
G01*
X11510000Y-9350000D02*
G75*
G02*
X11690000Y-9350000I90000J0D01*
G01*
X11690000Y-10250000D02*
G75*
G02*
X11510000Y-10250000I-90000J0D01*
G01*
X11510000Y-10250000D02*
G75*
G02*
X11690000Y-10250000I90000J0D01*
G01*
X18490000Y-11050000D02*
G75*
G02*
X18310000Y-11050000I-90000J0D01*
G01*
X18310000Y-11050000D02*
G75*
G02*
X18490000Y-11050000I90000J0D01*
G01*
X18490000Y-11950000D02*
G75*
G02*
X18310000Y-11950000I-90000J0D01*
G01*
X18310000Y-11950000D02*
G75*
G02*
X18490000Y-11950000I90000J0D01*
G01*
X20190000Y-11050000D02*
G75*
G02*
X20010000Y-11050000I-90000J0D01*
G01*
X20010000Y-11050000D02*
G75*
G02*
X20190000Y-11050000I90000J0D01*
G01*
X20190000Y-11950000D02*
G75*
G02*
X20010000Y-11950000I-90000J0D01*
G01*
X20010000Y-11950000D02*
G75*
G02*
X20190000Y-11950000I90000J0D01*
G01*
X13390000Y-7650000D02*
G75*
G02*
X13210000Y-7650000I-90000J0D01*
G01*
X13210000Y-7650000D02*
G75*
G02*
X13390000Y-7650000I90000J0D01*
G01*
X13390000Y-8550000D02*
G75*
G02*
X13210000Y-8550000I-90000J0D01*
G01*
X13210000Y-8550000D02*
G75*
G02*
X13390000Y-8550000I90000J0D01*
G01*
D11*
X6458277Y-13013984D02*
X6458277Y-12813984D01*
X6458277Y-12813984D02*
X6505896Y-12813984D01*
X6505896Y-12813984D02*
X6534467Y-12823508D01*
X6534467Y-12823508D02*
X6553515Y-12842555D01*
X6553515Y-12842555D02*
X6563039Y-12861603D01*
X6563039Y-12861603D02*
X6572562Y-12899698D01*
X6572562Y-12899698D02*
X6572562Y-12928269D01*
X6572562Y-12928269D02*
X6563039Y-12966365D01*
X6563039Y-12966365D02*
X6553515Y-12985412D01*
X6553515Y-12985412D02*
X6534467Y-13004460D01*
X6534467Y-13004460D02*
X6505896Y-13013984D01*
X6505896Y-13013984D02*
X6458277Y-13013984D01*
X6658277Y-13013984D02*
X6658277Y-12880650D01*
X6658277Y-12918746D02*
X6667801Y-12899698D01*
X6667801Y-12899698D02*
X6677324Y-12890174D01*
X6677324Y-12890174D02*
X6696372Y-12880650D01*
X6696372Y-12880650D02*
X6715420Y-12880650D01*
X6782086Y-13013984D02*
X6782086Y-12880650D01*
X6782086Y-12813984D02*
X6772562Y-12823508D01*
X6772562Y-12823508D02*
X6782086Y-12833031D01*
X6782086Y-12833031D02*
X6791610Y-12823508D01*
X6791610Y-12823508D02*
X6782086Y-12813984D01*
X6782086Y-12813984D02*
X6782086Y-12833031D01*
X6905896Y-13013984D02*
X6886848Y-13004460D01*
X6886848Y-13004460D02*
X6877324Y-12985412D01*
X6877324Y-12985412D02*
X6877324Y-12813984D01*
X7010658Y-13013984D02*
X6991610Y-13004460D01*
X6991610Y-13004460D02*
X6982086Y-12985412D01*
X6982086Y-12985412D02*
X6982086Y-12813984D01*
X7239229Y-13013984D02*
X7239229Y-12813984D01*
X7239229Y-12813984D02*
X7305896Y-12956841D01*
X7305896Y-12956841D02*
X7372562Y-12813984D01*
X7372562Y-12813984D02*
X7372562Y-13013984D01*
X7553515Y-13013984D02*
X7553515Y-12909222D01*
X7553515Y-12909222D02*
X7543991Y-12890174D01*
X7543991Y-12890174D02*
X7524943Y-12880650D01*
X7524943Y-12880650D02*
X7486848Y-12880650D01*
X7486848Y-12880650D02*
X7467801Y-12890174D01*
X7553515Y-13004460D02*
X7534467Y-13013984D01*
X7534467Y-13013984D02*
X7486848Y-13013984D01*
X7486848Y-13013984D02*
X7467801Y-13004460D01*
X7467801Y-13004460D02*
X7458277Y-12985412D01*
X7458277Y-12985412D02*
X7458277Y-12966365D01*
X7458277Y-12966365D02*
X7467801Y-12947317D01*
X7467801Y-12947317D02*
X7486848Y-12937793D01*
X7486848Y-12937793D02*
X7534467Y-12937793D01*
X7534467Y-12937793D02*
X7553515Y-12928269D01*
X7648753Y-12880650D02*
X7648753Y-13080650D01*
X7648753Y-12890174D02*
X7667801Y-12880650D01*
X7667801Y-12880650D02*
X7705896Y-12880650D01*
X7705896Y-12880650D02*
X7724943Y-12890174D01*
X7724943Y-12890174D02*
X7734467Y-12899698D01*
X7734467Y-12899698D02*
X7743991Y-12918746D01*
X7743991Y-12918746D02*
X7743991Y-12975888D01*
X7743991Y-12975888D02*
X7734467Y-12994936D01*
X7734467Y-12994936D02*
X7724943Y-13004460D01*
X7724943Y-13004460D02*
X7705896Y-13013984D01*
X7705896Y-13013984D02*
X7667801Y-13013984D01*
X7667801Y-13013984D02*
X7648753Y-13004460D01*
X7829705Y-12994936D02*
X7839229Y-13004460D01*
X7839229Y-13004460D02*
X7829705Y-13013984D01*
X7829705Y-13013984D02*
X7820182Y-13004460D01*
X7820182Y-13004460D02*
X7829705Y-12994936D01*
X7829705Y-12994936D02*
X7829705Y-13013984D01*
X7829705Y-12890174D02*
X7839229Y-12899698D01*
X7839229Y-12899698D02*
X7829705Y-12909222D01*
X7829705Y-12909222D02*
X7820182Y-12899698D01*
X7820182Y-12899698D02*
X7829705Y-12890174D01*
X7829705Y-12890174D02*
X7829705Y-12909222D01*
M02*
