%TF.GenerationSoftware,KiCad,Pcbnew,9.0.0*%
%TF.CreationDate,2026-02-03T17:21:03-08:00*%
%TF.ProjectId,Mini Video Synth,4d696e69-2056-4696-9465-6f2053796e74,rev?*%
%TF.SameCoordinates,Original*%
%TF.FileFunction,Soldermask,Top*%
%TF.FilePolarity,Negative*%
%FSLAX46Y46*%
G04 Gerber Fmt 4.6, Leading zero omitted, Abs format (unit mm)*
G04 Created by KiCad (PCBNEW 9.0.0) date 2026-02-03 17:21:03*
%MOMM*%
%LPD*%
G01*
G04 APERTURE LIST*
G04 Aperture macros list*
%AMRoundRect*
0 Rectangle with rounded corners*
0 $1 Rounding radius*
0 $2 $3 $4 $5 $6 $7 $8 $9 X,Y pos of 4 corners*
0 Add a 4 corners polygon primitive as box body*
4,1,4,$2,$3,$4,$5,$6,$7,$8,$9,$2,$3,0*
0 Add four circle primitives for the rounded corners*
1,1,$1+$1,$2,$3*
1,1,$1+$1,$4,$5*
1,1,$1+$1,$6,$7*
1,1,$1+$1,$8,$9*
0 Add four rect primitives between the rounded corners*
20,1,$1+$1,$2,$3,$4,$5,0*
20,1,$1+$1,$4,$5,$6,$7,0*
20,1,$1+$1,$6,$7,$8,$9,0*
20,1,$1+$1,$8,$9,$2,$3,0*%
G04 Aperture macros list end*
%ADD10O,3.200000X1.900000*%
%ADD11RoundRect,0.300000X-0.700000X-0.700000X0.700000X-0.700000X0.700000X0.700000X-0.700000X0.700000X0*%
%ADD12RoundRect,0.450000X-1.050000X-1.050000X1.050000X-1.050000X1.050000X1.050000X-1.050000X1.050000X0*%
%ADD13R,1.700000X1.700000*%
%ADD14O,1.700000X1.700000*%
%ADD15RoundRect,0.250000X1.050000X0.550000X-1.050000X0.550000X-1.050000X-0.550000X1.050000X-0.550000X0*%
%ADD16O,2.600000X1.600000*%
G04 APERTURE END LIST*
D10*
%TO.C,SW8*%
X160750000Y-95500000D03*
X173250000Y-95500000D03*
X160750000Y-100500000D03*
X173250000Y-100500000D03*
%TD*%
%TO.C,SW6*%
X126750000Y-95500000D03*
X139250000Y-95500000D03*
X126750000Y-100500000D03*
X139250000Y-100500000D03*
%TD*%
D11*
%TO.C,RV4*%
X164500000Y-70500000D03*
X167000000Y-70500000D03*
X169500000Y-70500000D03*
D12*
X163000000Y-64000000D03*
X171000000Y-64000000D03*
%TD*%
D11*
%TO.C,RV13*%
X181500000Y-104500000D03*
X184000000Y-104500000D03*
X186500000Y-104500000D03*
D12*
X180000000Y-98000000D03*
X188000000Y-98000000D03*
%TD*%
D10*
%TO.C,SW11*%
X143750000Y-112500000D03*
X156250000Y-112500000D03*
X143750000Y-117500000D03*
X156250000Y-117500000D03*
%TD*%
D11*
%TO.C,RV16*%
X232500000Y-104500000D03*
X235000000Y-104500000D03*
X237500000Y-104500000D03*
D12*
X231000000Y-98000000D03*
X239000000Y-98000000D03*
%TD*%
D10*
%TO.C,SW1*%
X109750000Y-78500000D03*
X122250000Y-78500000D03*
X109750000Y-83500000D03*
X122250000Y-83500000D03*
%TD*%
%TO.C,SW3*%
X143750000Y-78500000D03*
X156250000Y-78500000D03*
X143750000Y-83500000D03*
X156250000Y-83500000D03*
%TD*%
D11*
%TO.C,RV10*%
X198500000Y-87500000D03*
X201000000Y-87500000D03*
X203500000Y-87500000D03*
D12*
X197000000Y-81000000D03*
X205000000Y-81000000D03*
%TD*%
D11*
%TO.C,RV12*%
X232500000Y-87500000D03*
X235000000Y-87500000D03*
X237500000Y-87500000D03*
D12*
X231000000Y-81000000D03*
X239000000Y-81000000D03*
%TD*%
D13*
%TO.C,J1*%
X71250000Y-81090000D03*
D14*
X71250000Y-83630000D03*
X71250000Y-86170000D03*
X71250000Y-88710000D03*
X71250000Y-91250000D03*
X71250000Y-93790000D03*
%TD*%
D13*
%TO.C,J2*%
X71250000Y-100670000D03*
D14*
X71250000Y-103210000D03*
X71250000Y-105750000D03*
X71250000Y-108290000D03*
%TD*%
D15*
%TO.C,U1*%
X101450000Y-118080000D03*
D16*
X101450000Y-115540000D03*
X101450000Y-113000000D03*
X101450000Y-110460000D03*
X101450000Y-107920000D03*
X101450000Y-105380000D03*
X101450000Y-102840000D03*
X101450000Y-100300000D03*
X101450000Y-97760000D03*
X101450000Y-95220000D03*
X101450000Y-92680000D03*
X101450000Y-90140000D03*
X101450000Y-87600000D03*
X101450000Y-85060000D03*
X101450000Y-82520000D03*
X101450000Y-79980000D03*
X81730000Y-79980000D03*
X81730000Y-82520000D03*
X81730000Y-85060000D03*
X81730000Y-87600000D03*
X81730000Y-90140000D03*
X81730000Y-92680000D03*
X81730000Y-95220000D03*
X81730000Y-97760000D03*
X81730000Y-100300000D03*
X81730000Y-102840000D03*
X81730000Y-105380000D03*
X81730000Y-107920000D03*
%TD*%
D13*
%TO.C,SW19*%
X71250000Y-69475000D03*
D14*
X71250000Y-72015000D03*
X71250000Y-74555000D03*
%TD*%
D11*
%TO.C,RV1*%
X113500000Y-70500000D03*
X116000000Y-70500000D03*
X118500000Y-70500000D03*
D12*
X112000000Y-64000000D03*
X120000000Y-64000000D03*
%TD*%
D10*
%TO.C,SW16*%
X228750000Y-112500000D03*
X241250000Y-112500000D03*
X228750000Y-117500000D03*
X241250000Y-117500000D03*
%TD*%
%TO.C,SW7*%
X143750000Y-95500000D03*
X156250000Y-95500000D03*
X143750000Y-100500000D03*
X156250000Y-100500000D03*
%TD*%
D11*
%TO.C,RV15*%
X215500000Y-104500000D03*
X218000000Y-104500000D03*
X220500000Y-104500000D03*
D12*
X214000000Y-98000000D03*
X222000000Y-98000000D03*
%TD*%
D11*
%TO.C,RV14*%
X198500000Y-104500000D03*
X201000000Y-104500000D03*
X203500000Y-104500000D03*
D12*
X197000000Y-98000000D03*
X205000000Y-98000000D03*
%TD*%
D10*
%TO.C,SW9*%
X109750000Y-112500000D03*
X122250000Y-112500000D03*
X109750000Y-117500000D03*
X122250000Y-117500000D03*
%TD*%
%TO.C,SW12*%
X160750000Y-112500000D03*
X173250000Y-112500000D03*
X160750000Y-117500000D03*
X173250000Y-117500000D03*
%TD*%
%TO.C,SW10*%
X126750000Y-112500000D03*
X139250000Y-112500000D03*
X126750000Y-117500000D03*
X139250000Y-117500000D03*
%TD*%
D11*
%TO.C,RV11*%
X215500000Y-87500000D03*
X218000000Y-87500000D03*
X220500000Y-87500000D03*
D12*
X214000000Y-81000000D03*
X222000000Y-81000000D03*
%TD*%
D11*
%TO.C,RV2*%
X130500000Y-70500000D03*
X133000000Y-70500000D03*
X135500000Y-70500000D03*
D12*
X129000000Y-64000000D03*
X137000000Y-64000000D03*
%TD*%
D11*
%TO.C,RV3*%
X147500000Y-70500000D03*
X150000000Y-70500000D03*
X152500000Y-70500000D03*
D12*
X146000000Y-64000000D03*
X154000000Y-64000000D03*
%TD*%
D10*
%TO.C,SW15*%
X211750000Y-112500000D03*
X224250000Y-112500000D03*
X211750000Y-117500000D03*
X224250000Y-117500000D03*
%TD*%
D11*
%TO.C,RV8*%
X232500000Y-70500000D03*
X235000000Y-70500000D03*
X237500000Y-70500000D03*
D12*
X231000000Y-64000000D03*
X239000000Y-64000000D03*
%TD*%
D10*
%TO.C,SW4*%
X160750000Y-78500000D03*
X173250000Y-78500000D03*
X160750000Y-83500000D03*
X173250000Y-83500000D03*
%TD*%
%TO.C,SW5*%
X109750000Y-95500000D03*
X122250000Y-95500000D03*
X109750000Y-100500000D03*
X122250000Y-100500000D03*
%TD*%
%TO.C,SW13*%
X177750000Y-112500000D03*
X190250000Y-112500000D03*
X177750000Y-117500000D03*
X190250000Y-117500000D03*
%TD*%
D11*
%TO.C,RV6*%
X198500000Y-70500000D03*
X201000000Y-70500000D03*
X203500000Y-70500000D03*
D12*
X197000000Y-64000000D03*
X205000000Y-64000000D03*
%TD*%
D11*
%TO.C,RV7*%
X215500000Y-70500000D03*
X218000000Y-70500000D03*
X220500000Y-70500000D03*
D12*
X214000000Y-64000000D03*
X222000000Y-64000000D03*
%TD*%
D11*
%TO.C,RV5*%
X181500000Y-70500000D03*
X184000000Y-70500000D03*
X186500000Y-70500000D03*
D12*
X180000000Y-64000000D03*
X188000000Y-64000000D03*
%TD*%
D10*
%TO.C,SW14*%
X194750000Y-112500000D03*
X207250000Y-112500000D03*
X194750000Y-117500000D03*
X207250000Y-117500000D03*
%TD*%
%TO.C,SW2*%
X126750000Y-78500000D03*
X139250000Y-78500000D03*
X126750000Y-83500000D03*
X139250000Y-83500000D03*
%TD*%
D11*
%TO.C,RV9*%
X181500000Y-87500000D03*
X184000000Y-87500000D03*
X186500000Y-87500000D03*
D12*
X180000000Y-81000000D03*
X188000000Y-81000000D03*
%TD*%
M02*
