M48
; DRILL file {KiCad 9.0.0} date 2026-02-03T17:21:40-0800
; FORMAT={-:-/ absolute / metric / decimal}
; #@! TF.CreationDate,2026-02-03T17:21:40-08:00
; #@! TF.GenerationSoftware,Kicad,Pcbnew,9.0.0
; #@! TF.FileFunction,Plated,1,2,PTH
FMAT,2
METRIC
; #@! TA.AperFunction,Plated,PTH,ViaDrill
T1C0.300
; #@! TA.AperFunction,Plated,PTH,ComponentDrill
T2C1.000
; #@! TA.AperFunction,Plated,PTH,ComponentDrill
T3C1.300
; #@! TA.AperFunction,Plated,PTH,ComponentDrill
T4C2.100
%
G90
G05
T1
X73.25Y-85.0
X73.25Y-88.75
X74.25Y-86.17
X74.25Y-88.75
X75.0Y-83.63
X75.0Y-91.25
X75.66Y-81.09
X75.75Y-93.75
X76.5Y-80.0
X76.5Y-103.25
X77.25Y-82.5
X77.25Y-100.75
X78.0Y-54.5
X78.0Y-66.75
X78.0Y-92.5
X78.75Y-77.5
X78.75Y-105.25
X79.25Y-63.5
X79.25Y-75.5
X80.0Y-62.175
X80.103Y-74.353
X83.75Y-57.75
X83.75Y-70.5
X83.75Y-74.353
X83.75Y-75.623
X85.0Y-95.25
X85.5Y-106.5
X86.5Y-95.25
X87.25Y-97.75
X88.25Y-107.75
X89.75Y-102.75
X90.5Y-69.25
X90.5Y-105.5
X90.75Y-57.0
X91.25Y-78.5
X91.25Y-100.3
X92.048Y-100.247
X93.0Y-81.25
X93.0Y-85.0
X93.0Y-86.25
X93.0Y-92.75
X93.421Y-68.503
X93.421Y-71.003
X93.421Y-73.503
X93.421Y-76.003
X93.5Y-56.5
X93.5Y-59.0
X93.5Y-61.5
X93.56Y-64.0
X94.0Y-84.0
X94.0Y-87.75
X94.0Y-89.0
X94.0Y-90.25
X99.866Y-68.475
X99.866Y-70.975
X99.866Y-73.475
X99.866Y-75.975
X99.96Y-56.5
X99.96Y-59.0
X99.96Y-64.0
X99.98Y-61.5
X103.893Y-69.975
X104.0Y-73.25
X106.25Y-98.25
X106.25Y-108.0
X106.25Y-114.0
X106.35Y-88.5
X123.5Y-122.4
X123.5Y-123.75
X124.5Y-88.15
X124.5Y-94.75
X140.5Y-122.4
X140.5Y-124.5
X141.5Y-88.25
X141.5Y-94.5
X148.0Y-67.25
X148.75Y-66.6
X150.0Y-66.0
X150.537Y-66.732
X157.5Y-122.4
X157.5Y-125.25
X161.75Y-74.0
X174.0Y-68.25
X180.5Y-75.5
X183.951Y-60.35
X185.0Y-58.85
X190.926Y-72.476
X191.75Y-72.5
X201.0Y-74.75
X201.5Y-59.5
X202.25Y-62.0
X207.151Y-69.0
X208.0Y-69.0
X218.0Y-58.25
X219.0Y-60.25
X224.0Y-69.0
X225.0Y-68.97
X234.75Y-61.5
X235.0Y-64.0
X235.0Y-74.0
X236.0Y-60.75
X236.0Y-64.169
T2
X71.25Y-69.475
X71.25Y-72.015
X71.25Y-74.555
X71.25Y-81.09
X71.25Y-83.63
X71.25Y-86.17
X71.25Y-88.71
X71.25Y-91.25
X71.25Y-93.79
X71.25Y-100.67
X71.25Y-103.21
X71.25Y-105.75
X71.25Y-108.29
X81.43Y-79.98
X81.43Y-82.52
X81.43Y-85.06
X81.43Y-87.6
X81.43Y-90.14
X81.43Y-92.68
X81.43Y-95.22
X81.43Y-97.76
X81.43Y-100.3
X81.43Y-102.84
X81.43Y-105.38
X81.43Y-107.92
X101.75Y-79.98
X101.75Y-82.52
X101.75Y-85.06
X101.75Y-87.6
X101.75Y-90.14
X101.75Y-92.68
X101.75Y-95.22
X101.75Y-97.76
X101.75Y-100.3
X101.75Y-102.84
X101.75Y-105.38
X101.75Y-107.92
X101.75Y-110.46
X101.75Y-113.0
X101.75Y-115.54
X101.75Y-118.08
X113.5Y-70.5
X116.0Y-70.5
X118.5Y-70.5
X130.5Y-70.5
X133.0Y-70.5
X135.5Y-70.5
X147.5Y-70.5
X150.0Y-70.5
X152.5Y-70.5
X164.5Y-70.5
X167.0Y-70.5
X169.5Y-70.5
X181.5Y-70.5
X181.5Y-87.5
X181.5Y-104.5
X184.0Y-70.5
X184.0Y-87.5
X184.0Y-104.5
X186.5Y-70.5
X186.5Y-87.5
X186.5Y-104.5
X198.5Y-70.5
X198.5Y-87.5
X198.5Y-104.5
X201.0Y-70.5
X201.0Y-87.5
X201.0Y-104.5
X203.5Y-70.5
X203.5Y-87.5
X203.5Y-104.5
X215.5Y-70.5
X215.5Y-87.5
X215.5Y-104.5
X218.0Y-70.5
X218.0Y-87.5
X218.0Y-104.5
X220.5Y-70.5
X220.5Y-87.5
X220.5Y-104.5
X232.5Y-70.5
X232.5Y-87.5
X232.5Y-104.5
X235.0Y-70.5
X235.0Y-87.5
X235.0Y-104.5
X237.5Y-70.5
X237.5Y-87.5
X237.5Y-104.5
T3
X109.75Y-78.5
X109.75Y-83.5
X109.75Y-95.5
X109.75Y-100.5
X109.75Y-112.5
X109.75Y-117.5
X122.25Y-78.5
X122.25Y-83.5
X122.25Y-95.5
X122.25Y-100.5
X122.25Y-112.5
X122.25Y-117.5
X126.75Y-78.5
X126.75Y-83.5
X126.75Y-95.5
X126.75Y-100.5
X126.75Y-112.5
X126.75Y-117.5
X139.25Y-78.5
X139.25Y-83.5
X139.25Y-95.5
X139.25Y-100.5
X139.25Y-112.5
X139.25Y-117.5
X143.75Y-78.5
X143.75Y-83.5
X143.75Y-95.5
X143.75Y-100.5
X143.75Y-112.5
X143.75Y-117.5
X156.25Y-78.5
X156.25Y-83.5
X156.25Y-95.5
X156.25Y-100.5
X156.25Y-112.5
X156.25Y-117.5
X160.75Y-78.5
X160.75Y-83.5
X160.75Y-95.5
X160.75Y-100.5
X160.75Y-112.5
X160.75Y-117.5
X173.25Y-78.5
X173.25Y-83.5
X173.25Y-95.5
X173.25Y-100.5
X173.25Y-112.5
X173.25Y-117.5
X177.75Y-112.5
X177.75Y-117.5
X190.25Y-112.5
X190.25Y-117.5
X194.75Y-112.5
X194.75Y-117.5
X207.25Y-112.5
X207.25Y-117.5
X211.75Y-112.5
X211.75Y-117.5
X224.25Y-112.5
X224.25Y-117.5
X228.75Y-112.5
X228.75Y-117.5
X241.25Y-112.5
X241.25Y-117.5
T4
X112.0Y-64.0
X120.0Y-64.0
X129.0Y-64.0
X137.0Y-64.0
X146.0Y-64.0
X154.0Y-64.0
X163.0Y-64.0
X171.0Y-64.0
X180.0Y-64.0
X180.0Y-81.0
X180.0Y-98.0
X188.0Y-64.0
X188.0Y-81.0
X188.0Y-98.0
X197.0Y-64.0
X197.0Y-81.0
X197.0Y-98.0
X205.0Y-64.0
X205.0Y-81.0
X205.0Y-98.0
X214.0Y-64.0
X214.0Y-81.0
X214.0Y-98.0
X222.0Y-64.0
X222.0Y-81.0
X222.0Y-98.0
X231.0Y-64.0
X231.0Y-81.0
X231.0Y-98.0
X239.0Y-64.0
X239.0Y-81.0
X239.0Y-98.0
M30
