%TF.GenerationSoftware,KiCad,Pcbnew,9.0.0*%
%TF.CreationDate,2026-02-03T17:21:03-08:00*%
%TF.ProjectId,Mini Video Synth,4d696e69-2056-4696-9465-6f2053796e74,rev?*%
%TF.SameCoordinates,Original*%
%TF.FileFunction,Paste,Bot*%
%TF.FilePolarity,Positive*%
%FSLAX46Y46*%
G04 Gerber Fmt 4.6, Leading zero omitted, Abs format (unit mm)*
G04 Created by KiCad (PCBNEW 9.0.0) date 2026-02-03 17:21:03*
%MOMM*%
%LPD*%
G01*
G04 APERTURE LIST*
G04 Aperture macros list*
%AMRoundRect*
0 Rectangle with rounded corners*
0 $1 Rounding radius*
0 $2 $3 $4 $5 $6 $7 $8 $9 X,Y pos of 4 corners*
0 Add a 4 corners polygon primitive as box body*
4,1,4,$2,$3,$4,$5,$6,$7,$8,$9,$2,$3,0*
0 Add four circle primitives for the rounded corners*
1,1,$1+$1,$2,$3*
1,1,$1+$1,$4,$5*
1,1,$1+$1,$6,$7*
1,1,$1+$1,$8,$9*
0 Add four rect primitives between the rounded corners*
20,1,$1+$1,$2,$3,$4,$5,0*
20,1,$1+$1,$4,$5,$6,$7,0*
20,1,$1+$1,$6,$7,$8,$9,0*
20,1,$1+$1,$8,$9,$2,$3,0*%
G04 Aperture macros list end*
%ADD10RoundRect,0.135000X0.135000X0.185000X-0.135000X0.185000X-0.135000X-0.185000X0.135000X-0.185000X0*%
%ADD11RoundRect,0.225000X-0.225000X-0.375000X0.225000X-0.375000X0.225000X0.375000X-0.225000X0.375000X0*%
%ADD12RoundRect,0.140000X0.140000X0.170000X-0.140000X0.170000X-0.140000X-0.170000X0.140000X-0.170000X0*%
%ADD13RoundRect,0.150000X0.837500X0.150000X-0.837500X0.150000X-0.837500X-0.150000X0.837500X-0.150000X0*%
G04 APERTURE END LIST*
D10*
%TO.C,R13*%
X96440000Y-55500000D03*
X95420000Y-55500000D03*
%TD*%
D11*
%TO.C,D3*%
X140350000Y-87000000D03*
X143650000Y-87000000D03*
%TD*%
%TO.C,D12*%
X157350000Y-121000000D03*
X160650000Y-121000000D03*
%TD*%
D10*
%TO.C,R12*%
X102960000Y-63000000D03*
X101940000Y-63000000D03*
%TD*%
D11*
%TO.C,D8*%
X157350000Y-104000000D03*
X160650000Y-104000000D03*
%TD*%
%TO.C,D7*%
X140350000Y-104000000D03*
X143650000Y-104000000D03*
%TD*%
D12*
%TO.C,C3*%
X99880750Y-67475500D03*
X98920750Y-67475500D03*
%TD*%
D11*
%TO.C,D6*%
X123350000Y-104000000D03*
X126650000Y-104000000D03*
%TD*%
D12*
%TO.C,C7*%
X93420750Y-70003000D03*
X92460750Y-70003000D03*
%TD*%
D13*
%TO.C,U2*%
X88920750Y-66733000D03*
X88920750Y-68003000D03*
X88920750Y-69273000D03*
X88920750Y-70543000D03*
X88920750Y-71813000D03*
X88920750Y-73083000D03*
X88920750Y-74353000D03*
X88920750Y-75623000D03*
X81995750Y-75623000D03*
X81995750Y-74353000D03*
X81995750Y-73083000D03*
X81995750Y-71813000D03*
X81995750Y-70543000D03*
X81995750Y-69273000D03*
X81995750Y-68003000D03*
X81995750Y-66733000D03*
%TD*%
D12*
%TO.C,C14*%
X93500000Y-63000000D03*
X92540000Y-63000000D03*
%TD*%
%TO.C,C12*%
X99960000Y-63000000D03*
X99000000Y-63000000D03*
%TD*%
D10*
%TO.C,R8*%
X96450750Y-72503000D03*
X95430750Y-72503000D03*
%TD*%
D12*
%TO.C,C1*%
X99860750Y-72475500D03*
X98900750Y-72475500D03*
%TD*%
%TO.C,C6*%
X93400750Y-75003000D03*
X92440750Y-75003000D03*
%TD*%
D11*
%TO.C,D2*%
X123350000Y-87000000D03*
X126650000Y-87000000D03*
%TD*%
D13*
%TO.C,U3*%
X88962500Y-54555000D03*
X88962500Y-55825000D03*
X88962500Y-57095000D03*
X88962500Y-58365000D03*
X88962500Y-59635000D03*
X88962500Y-60905000D03*
X88962500Y-62175000D03*
X88962500Y-63445000D03*
X82037500Y-63445000D03*
X82037500Y-62175000D03*
X82037500Y-60905000D03*
X82037500Y-59635000D03*
X82037500Y-58365000D03*
X82037500Y-57095000D03*
X82037500Y-55825000D03*
X82037500Y-54555000D03*
%TD*%
D12*
%TO.C,C5*%
X93460750Y-67503000D03*
X92500750Y-67503000D03*
%TD*%
D11*
%TO.C,D9*%
X106350000Y-121000000D03*
X109650000Y-121000000D03*
%TD*%
D10*
%TO.C,R6*%
X96410750Y-75003000D03*
X95390750Y-75003000D03*
%TD*%
%TO.C,R7*%
X96420750Y-70003000D03*
X95400750Y-70003000D03*
%TD*%
D12*
%TO.C,C10*%
X99960000Y-58000000D03*
X99000000Y-58000000D03*
%TD*%
%TO.C,C4*%
X99860750Y-74975500D03*
X98900750Y-74975500D03*
%TD*%
D10*
%TO.C,R11*%
X102950000Y-55500000D03*
X101930000Y-55500000D03*
%TD*%
%TO.C,R16*%
X96440000Y-60500000D03*
X95420000Y-60500000D03*
%TD*%
D11*
%TO.C,D4*%
X157350000Y-87000000D03*
X160650000Y-87000000D03*
%TD*%
%TO.C,D5*%
X106350000Y-104000000D03*
X109650000Y-104000000D03*
%TD*%
D10*
%TO.C,R14*%
X96500000Y-63000000D03*
X95480000Y-63000000D03*
%TD*%
D12*
%TO.C,C8*%
X93440750Y-72503000D03*
X92480750Y-72503000D03*
%TD*%
D10*
%TO.C,R5*%
X96480750Y-67503000D03*
X95460750Y-67503000D03*
%TD*%
D12*
%TO.C,C11*%
X99960000Y-55500000D03*
X99000000Y-55500000D03*
%TD*%
D10*
%TO.C,R1*%
X102870750Y-72475500D03*
X101850750Y-72475500D03*
%TD*%
D12*
%TO.C,C13*%
X93460000Y-55500000D03*
X92500000Y-55500000D03*
%TD*%
D11*
%TO.C,D15*%
X208350000Y-121000000D03*
X211650000Y-121000000D03*
%TD*%
%TO.C,D14*%
X191350000Y-121000000D03*
X194650000Y-121000000D03*
%TD*%
D12*
%TO.C,C15*%
X93460000Y-58000000D03*
X92500000Y-58000000D03*
%TD*%
D11*
%TO.C,D16*%
X225350000Y-121000000D03*
X228650000Y-121000000D03*
%TD*%
D10*
%TO.C,R9*%
X102960000Y-60500000D03*
X101940000Y-60500000D03*
%TD*%
D12*
%TO.C,C9*%
X99960000Y-60500000D03*
X99000000Y-60500000D03*
%TD*%
%TO.C,C16*%
X93460000Y-60500000D03*
X92500000Y-60500000D03*
%TD*%
D11*
%TO.C,D13*%
X174350000Y-121000000D03*
X177650000Y-121000000D03*
%TD*%
D10*
%TO.C,R15*%
X96440000Y-58000000D03*
X95420000Y-58000000D03*
%TD*%
D11*
%TO.C,D11*%
X140350000Y-121000000D03*
X143650000Y-121000000D03*
%TD*%
D10*
%TO.C,R4*%
X102890750Y-74975500D03*
X101870750Y-74975500D03*
%TD*%
%TO.C,R3*%
X102890750Y-67475500D03*
X101870750Y-67475500D03*
%TD*%
%TO.C,R2*%
X102900750Y-69975500D03*
X101880750Y-69975500D03*
%TD*%
D11*
%TO.C,D10*%
X123350000Y-121000000D03*
X126650000Y-121000000D03*
%TD*%
D12*
%TO.C,C2*%
X99870750Y-69975500D03*
X98910750Y-69975500D03*
%TD*%
D11*
%TO.C,D1*%
X106350000Y-87000000D03*
X109650000Y-87000000D03*
%TD*%
D10*
%TO.C,R10*%
X102950000Y-58000000D03*
X101930000Y-58000000D03*
%TD*%
M02*
